<?xml version="1.0" encoding="UTF-8" standalone="no"?>
<!DOCTYPE svg PUBLIC "-//W3C//DTD SVG 1.1//EN" "http://www.w3.org/Graphics/SVG/1.1/DTD/svg11.dtd">
<svg width="100%" height="100%" viewBox="0 0 1291 744" version="1.1" xmlns="http://www.w3.org/2000/svg"
     xml:space="preserve" xmlns:serif="http://www.serif.com/"
     style="fill-rule:evenodd;clip-rule:evenodd;stroke-linecap:round;stroke-linejoin:round;stroke-miterlimit:1.5;">
    <g transform="matrix(2.66667,0,0,2.66667,-17653.3,-2085.33)">
        <g id="CartoonPortrait" transform="matrix(1,0,0,1,-0.0581321,-0.873392)">
            <rect x="6620.06" y="782.873" width="483.813" height="278.987" style="fill:none;"/>
            <g transform="matrix(1.11211,0,0,1.03936,5736.92,-66.5628)">
                <path d="M1004.01,986.08C1004.01,986.08 945.367,990.296 943.363,1009.67C941.358,1029.05 939.594,1051.71 960.976,1053.72C982.357,1055.72 1058.53,1055.06 1058.53,1055.06C1058.53,1055.06 1073.9,1053.72 1081.25,1047.7C1088.6,1041.69 1082.58,1010.96 1076.57,1002.94C1070.56,994.919 1051.69,984.986 1023.63,985.654" style="fill:rgb(26,122,230);stroke:rgb(49,49,49);stroke-width:1.35px;"/>
            </g>
            <g transform="matrix(1,0,0,1,5853.82,-25.0358)">
                <path d="M954.565,917.892C954.565,917.892 954.603,910.519 953.293,897.511C951.891,883.582 947.764,866.789 959.109,860.964C976.485,852.041 1049.66,855.097 1057.73,854.816C1076.29,854.172 1068.37,891.766 1066.72,916.171" style="fill:none;stroke:rgb(116,209,234);stroke-width:3.63px;"/>
            </g>
            <g transform="matrix(0.992135,-0.125176,0.125176,0.992135,5744.15,113.398)">
                <path d="M963.085,908.805C963.085,907.422 961.962,906.299 960.579,906.299L955.568,906.299C954.185,906.299 953.062,907.422 953.062,908.805L953.062,929.685C953.062,931.068 954.185,932.191 955.568,932.191L960.579,932.191C961.962,932.191 963.085,931.068 963.085,929.685L963.085,908.805Z" style="fill:rgb(116,209,234);stroke:black;stroke-width:0.5px;"/>
            </g>
            <g transform="matrix(0.99546,0.0951794,-0.0951794,0.99546,6052.94,-102.864)">
                <path d="M963.085,908.805C963.085,907.422 961.962,906.299 960.579,906.299L955.568,906.299C954.185,906.299 953.062,907.422 953.062,908.805L953.062,929.685C953.062,931.068 954.185,932.191 955.568,932.191L960.579,932.191C961.962,932.191 963.085,931.068 963.085,929.685L963.085,908.805Z" style="fill:rgb(116,209,234);stroke:black;stroke-width:0.5px;"/>
            </g>
            <g transform="matrix(1,0,0,0.887777,5851.68,80.6641)">
                <path d="M1066.39,886.236C1066.39,871.497 1054.43,859.53 1039.69,859.53L986.278,859.53C971.538,859.53 959.572,871.497 959.572,886.236L965.385,943.293C965.385,958.033 968.8,987.127 1013.2,987.618C1051.87,988.045 1060.38,958.183 1060.38,943.444L1066.39,886.236Z" style="fill:rgb(234,203,187);stroke:rgb(49,49,49);stroke-width:2px;"/>
            </g>
            <g transform="matrix(0.96422,0.265102,-0.265102,0.96422,6136.21,-260.274)">
                <path d="M1012.15,930.042C1012.15,930.042 1017.75,933.402 1014.11,942.923" style="fill:none;stroke:rgb(74,74,74);stroke-width:1.89px;"/>
            </g>
            <g transform="matrix(1,0,0,2.65315,5862.11,56.3832)">
                <g transform="matrix(-0.884463,-4.08253e-17,1.08315e-16,-0.333364,1889.64,639.635)">
                    <path d="M1017.49,933.006C1018.85,931.525 1018.17,929.495 1018.17,927.785C1018.17,922.408 1012.6,918.393 1004.02,918.393C995.432,918.393 990.038,921.883 990.038,927.26C990.038,928.97 989.181,931.525 990.547,933.006L1017.49,933.006Z" style="fill:rgb(153,122,107);stroke:rgb(49,49,49);stroke-width:2.14px;"/>
                </g>
                <g transform="matrix(1.64366,0,0,0.281341,-662.98,59.1067)">
                    <circle cx="1012.96" cy="969.673" r="4.704" style="fill:rgb(192,81,49);stroke:rgb(60,60,60);stroke-width:0.58px;"/>
                </g>
                <g transform="matrix(0.836983,0,0,0.315468,154.485,28.467)">
                    <rect x="998.807" y="953.397" width="26.099" height="1.792" style="fill:white;stroke:white;stroke-width:2.26px;"/>
                </g>
            </g>
            <g transform="matrix(1,0,0,1,5851.68,-25.0358)">
                <path d="M987.123,907.243C988.027,906.139 997.092,905.733 997.358,907.324" style="fill:none;stroke:rgb(60,60,60);stroke-width:1.89px;"/>
            </g>
            <g transform="matrix(1,0,0,1,5851.68,-25.0358)">
                <path d="M987.123,907.243C988.027,906.139 997.092,905.733 997.358,907.324" style="fill:none;stroke:rgb(60,60,60);stroke-width:1.89px;"/>
            </g>
            <g transform="matrix(1,0,0,1,5890.86,-25.0358)">
                <path d="M987.123,907.243C988.027,906.139 997.092,905.733 997.358,907.324" style="fill:none;stroke:rgb(60,60,60);stroke-width:1.89px;"/>
            </g>
            <g transform="matrix(1,0,0,1,5851.68,-25.0358)">
                <circle cx="992.563" cy="915.811" r="2.606" style="fill:rgb(60,60,60);stroke:black;stroke-width:0.5px;"/>
            </g>
            <g transform="matrix(1,0,0,1,5890.54,-25.0358)">
                <circle cx="992.563" cy="915.811" r="2.606" style="fill:rgb(60,60,60);stroke:black;stroke-width:0.5px;"/>
            </g>
            <g transform="matrix(1.96204,0,0,5.20557,5155.62,-656.416)">
                <g transform="matrix(1,0,0,0.376911,-10.4319,-32.7628)">
                    <path d="M854.947,860.023C853.459,860.974 853.581,865.585 854.785,872.654C856.245,867.783 858.362,864.062 860.801,860.905C860.801,860.905 883.553,867.556 901.755,856.005C919.957,844.454 898.132,843.605 893.149,843.833C885.833,844.167 883.546,841.548 856.158,849.711C849.181,851.79 857.381,850.821 857.381,850.821C857.381,850.821 860.169,852.127 858.188,852.436C855.839,852.803 856.133,852.583 854.004,852.73C851.875,852.877 847.985,852.289 847.618,852.877C847.251,853.464 848.058,855.666 848.939,856.474C849.82,857.281 850.493,860.052 860.801,860.905" style="fill:rgb(115,83,29);stroke:rgb(143,106,42);stroke-width:0.38px;"/>
                </g>
                <g transform="matrix(0.738223,-0.197302,0.450433,0.239422,-160.651,263.742)">
                    <path d="M899.366,873.868C899.366,873.868 897.775,861.633 901.446,857.351C905.116,853.069 906.462,853.313 907.074,852.212C907.685,851.111 911.111,851.601 911.6,854.782C912.09,857.963 909.888,862.612 909.888,862.612C909.888,862.612 906.34,865.303 905.728,867.261C905.116,869.218 902.057,872.032 901.69,873.623C901.323,875.213 899.366,873.868 899.366,873.868Z" style="fill:rgb(115,83,29);stroke:rgb(143,106,42);stroke-width:0.45px;"/>
                </g>
            </g>
            <g transform="matrix(1,0,0,1,5851.68,-25.0358)">
                <path d="M993.094,882.441C993.094,882.441 985.193,881.442 977.338,878.869C966.258,875.239 966.482,875.572 961.859,871.61C957.236,867.647 951.292,866.106 951.952,863.464C952.613,860.822 967.803,864.345 979.03,864.565C990.258,864.785 991.017,861.552 1001.09,860.34C1034.25,856.35 1051.22,857.202 1057.18,861.703C1064.82,867.468 1046.43,884.618 1016.24,881.516C1010.25,880.902 993.094,882.441 993.094,882.441Z" style="fill:rgb(121,87,31);"/>
            </g>
            <g id="Musical-Note" serif:id="Musical Note" transform="matrix(1.4754,1.09119e-31,-1.81866e-32,1.4754,6455.59,733.934)">
                <path d="M214.042,48.035L203.982,50.295C203.442,50.416 203,50.97 203,51.525L203,53.015L202.984,53.015L202.984,65.597C202.984,66.146 202.546,66.694 202.012,66.817L199.251,67.444C198.013,67.725 197,68.997 197,70.271L197,70.495C197,71.879 198.118,73 199.498,73L200.459,73C202.37,73 203.919,71.447 203.919,69.531L203.919,60.845L203.936,60.845L203.936,56.91C203.936,56.472 204.286,56.042 204.714,55.956L213.861,54.097C214.219,54.025 214.554,54.299 214.554,54.666L214.554,62.591C214.554,63.14 214.117,63.687 213.582,63.808L210.737,64.447C209.507,64.722 208.5,65.984 208.5,67.249L208.5,67.481C208.5,68.87 209.623,69.995 211.007,69.995L212.005,69.995C213.936,69.995 215.5,68.426 215.5,66.492L215.5,50.007L215.498,50.007L215.498,49.207C215.498,48.491 215.005,48 214.351,48C214.252,48 214.148,48.012 214.042,48.035Z" style="fill:white;stroke:white;stroke-width:0.68px;stroke-linecap:butt;stroke-miterlimit:2;"/>
            </g>
            <g id="Musical-Note1" serif:id="Musical Note" transform="matrix(1.4754,1.09119e-31,-1.81866e-32,1.4754,6700.28,796.739)">
                <path d="M214.042,48.035L203.982,50.295C203.442,50.416 203,50.97 203,51.525L203,53.015L202.984,53.015L202.984,65.597C202.984,66.146 202.546,66.694 202.012,66.817L199.251,67.444C198.013,67.725 197,68.997 197,70.271L197,70.495C197,71.879 198.118,73 199.498,73L200.459,73C202.37,73 203.919,71.447 203.919,69.531L203.919,60.845L203.936,60.845L203.936,56.91C203.936,56.472 204.286,56.042 204.714,55.956L213.861,54.097C214.219,54.025 214.554,54.299 214.554,54.666L214.554,62.591C214.554,63.14 214.117,63.687 213.582,63.808L210.737,64.447C209.507,64.722 208.5,65.984 208.5,67.249L208.5,67.481C208.5,68.87 209.623,69.995 211.007,69.995L212.005,69.995C213.936,69.995 215.5,68.426 215.5,66.492L215.5,50.007L215.498,50.007L215.498,49.207C215.498,48.491 215.005,48 214.351,48C214.252,48 214.148,48.012 214.042,48.035Z" style="fill:white;stroke:white;stroke-width:0.68px;stroke-linecap:butt;stroke-miterlimit:2;"/>
            </g>
            <g transform="matrix(0.561644,0,0,0.561644,6274.83,388.893)">
                <circle cx="778.303" cy="826.586" r="14.885" style="fill:rgb(229,215,197);"/>
            </g>
            <g transform="matrix(1,0,0,1,6272.55,111.992)">
                <circle cx="778.303" cy="826.586" r="14.885" style="fill:rgb(131,167,225);"/>
            </g>
            <g transform="matrix(1,0,0,1,5910.41,101.389)">
                <circle cx="778.303" cy="826.586" r="14.885" style="fill:rgb(242,142,124);"/>
            </g>
            <g transform="matrix(0.479303,0,0,0.479303,6307.91,602.081)">
                <circle cx="778.303" cy="826.586" r="14.885" style="fill:rgb(241,231,132);"/>
            </g>
            <g transform="matrix(0.479303,0,0,0.479303,6274.24,425.149)">
                <circle cx="778.303" cy="826.586" r="14.885" style="fill:rgb(234,187,146);"/>
            </g>
            <g transform="matrix(0.534247,0,0,0.534247,6586.52,377.486)">
                <circle cx="778.303" cy="826.586" r="14.885" style="fill:rgb(185,219,224);"/>
            </g>
            <g transform="matrix(0.328767,0,0,0.328767,6716.47,577.307)">
                <circle cx="778.303" cy="826.586" r="14.885" style="fill:rgb(225,211,199);"/>
            </g>
            <g transform="matrix(0.80826,0,0,0.612388,6042.46,357.848)">
                <rect x="1004.87" y="978.525" width="23.386" height="38.754" style="fill:rgb(234,203,187);stroke:rgb(49,49,49);stroke-width:0.97px;"/>
            </g>
            <g transform="matrix(1,0,0,0.964383,5824.54,2.2476)">
                <path d="M1104.3,1005.69C1104.3,1004.31 1103.78,1003 1102.84,1002.03C1101.9,1001.06 1100.63,1000.51 1099.31,1000.51C1078.59,1000.51 999.506,1000.51 978.79,1000.51C977.467,1000.51 976.197,1001.06 975.261,1002.03C974.325,1003 973.799,1004.31 973.799,1005.69C973.799,1022.2 973.799,1072.55 973.799,1072.55L1104.3,1072.55L1104.3,1005.69Z" style="fill:rgb(232,229,229);stroke:rgb(116,209,234);stroke-width:1.48px;"/>
            </g>
            <g transform="matrix(0.988578,0,0,0.911778,5868.56,80.0071)">
                <rect x="941.07" y="1043.52" width="130.711" height="5.036" style="fill:rgb(203,203,203);"/>
            </g>
            <g transform="matrix(1,0,0,0.666667,5851.68,329.273)">
                <rect x="946.54" y="1062.93" width="130.427" height="6.414" style="fill:rgb(39,39,39);stroke:rgb(49,49,49);stroke-width:1.71px;"/>
            </g>
            <g transform="matrix(1,0,0,1,5851.68,-25.0358)">
                <circle cx="1011.89" cy="1025.64" r="9.087" style="fill:rgb(116,209,234);stroke:rgb(158,158,158);stroke-width:1.46px;"/>
            </g>
            <g transform="matrix(1,0,0,1,5851.68,-25.0358)">
                <rect x="822.029" y="1070.53" width="377.935" height="5.568" style="fill:rgb(39,39,39);"/>
            </g>
        </g>
    </g>
</svg>
